Coordinates
version=1
nRows=26
nColumns=22
inDegrees=yes

Units are S.I. units (second, meters, Newtons, ...)
If the header above contains a line with 'inDegrees', this indicates whether rotational values are in degrees (yes) or radians (no).

endheader
time	pelvis_tilt	pelvis_list	pelvis_rotation	pelvis_tx	pelvis_ty	pelvis_tz	hip_flexion_r	hip_adduction_r	hip_rotation_r	knee_angle_r	ankle_angle_r	subtalar_angle_r	hip_flexion_l	hip_adduction_l	hip_rotation_l	knee_angle_l	ankle_angle_l	subtalar_angle_l	lumbar_extension	lumbar_bending	lumbar_rotation
      0.01000000	     -3.04885319	     -2.13148921	      3.76541363	     -1.01140668	      0.93820950	     -0.66491638	      3.93684461	      2.28063278	    -15.39196437	    -13.77431268	     12.77817391	     -0.96873340	      9.57789005	     -3.48123226	     -4.32047808	    -21.51172002	     13.70117605	     -1.33657766	     -6.52143619	     -0.51270137	     -5.29673743
      0.02000000	     -3.06769466	     -2.10439608	      3.80693344	     -1.01115005	      0.93823251	     -0.66506327	      3.95338660	      2.23720452	    -15.45238235	    -13.80784139	     12.77351220	     -1.03013802	      9.49420297	     -3.43149939	     -4.28848412	    -21.34702964	     13.69145834	     -1.40998628	     -6.50676712	     -0.52014903	     -5.27844593
      0.03000000	     -3.09344303	     -2.06249009	      3.83906857	     -1.01085820	      0.93824881	     -0.66519702	      3.97427416	      2.18014467	    -15.46782166	    -13.84154476	     12.79756709	     -1.05472919	      9.40803217	     -3.37078502	     -4.29561422	    -21.17382355	     13.66454673	     -1.45901161	     -6.48401027	     -0.54567293	     -5.28092292
      0.04000000	     -3.12236967	     -2.02540514	      3.86069014	     -1.01055934	      0.93826311	     -0.66532378	      4.00473578	      2.12708781	    -15.47502106	    -13.88576091	     12.81185949	     -1.06292148	      9.32094545	     -3.31597329	     -4.30921941	    -20.99748155	     13.63802373	     -1.48962251	     -6.45842460	     -0.56159506	     -5.26999836
      0.05000000	     -3.15295155	     -1.98646068	      3.87174318	     -1.01026298	      0.93827903	     -0.66543320	      4.04046278	      2.07254132	    -15.46834529	    -13.93565684	     12.82703798	     -1.06472532	      9.23137408	     -3.26032938	     -4.32886832	    -20.81651519	     13.60702473	     -1.51403993	     -6.43240993	     -0.58080246	     -5.25685445
      0.06000000	     -3.18378018	     -1.94963569	      3.86790904	     -1.00996924	      0.93829092	     -0.66553547	      4.07991086	      2.01928268	    -15.45059849	    -13.98997830	     12.84027824	     -1.06431642	      9.14103080	     -3.20772233	     -4.35516906	    -20.63823526	     13.57774472	     -1.53354877	     -6.40419331	     -0.59394877	     -5.23896153
      0.07000000	     -3.21307529	     -1.91396942	      3.85064234	     -1.00968440	      0.93830316	     -0.66562855	      4.12086326	      1.96720403	    -15.42084949	    -14.04732086	     12.85277458	     -1.06301805	      9.05012010	     -3.15725107	     -4.38768514	    -20.46607082	     13.55172696	     -1.54927487	     -6.37544206	     -0.60412921	     -5.21730124
      0.08000000	     -3.23973850	     -1.87881913	      3.82048550	     -1.00942199	      0.93831557	     -0.66570745	      4.16246278	      1.91631117	    -15.38031647	    -14.10540422	     12.86697927	     -1.06084514	      8.95803305	     -3.10891935	     -4.42815323	    -20.29818597	     13.52996508	     -1.56252941	     -6.35138717	     -0.61347146	     -5.19426564
      0.09000000	     -3.26196851	     -1.84281529	      3.77864497	     -1.00916626	      0.93832927	     -0.66577194	      4.20131458	      1.86532879	    -15.32732462	    -14.16623994	     12.88482454	     -1.05752112	      8.85937976	     -3.06172504	     -4.47854629	    -20.12944380	     13.51233657	     -1.57554877	     -6.33091761	     -0.62594933	     -5.17047279
      0.10000000	     -3.27865885	     -1.80732758	      3.72416560	     -1.00891291	      0.93834335	     -0.66583352	      4.23488266	      1.81499346	    -15.26510700	    -14.22629255	     12.90562315	     -1.05347972	      8.75408474	     -3.01567634	     -4.53756068	    -19.96366655	     13.50092470	     -1.59012002	     -6.31325657	     -0.63440048	     -5.14959782
      0.11000000	     -3.29264143	     -1.77335978	      3.66318551	     -1.00867681	      0.93835439	     -0.66588849	      4.26586687	      1.76766915	    -15.19654801	    -14.28250952	     12.92670777	     -1.04968990	      8.64643375	     -2.97182977	     -4.60120748	    -19.79851118	     13.49861510	     -1.60766208	     -6.29896330	     -0.64136503	     -5.12881462
      0.12000000	     -3.30183345	     -1.73891308	      3.59184459	     -1.00844346	      0.93836614	     -0.66593192	      4.29190379	      1.72105766	    -15.11766609	    -14.33753361	     12.95136533	     -1.04651198	      8.53166120	     -2.92832094	     -4.67498754	    -19.63323556	     13.49914770	     -1.63329322	     -6.28729094	     -0.64854785	     -5.11045906
      0.13000000	     -3.31327832	     -1.70936670	      3.51939366	     -1.00823608	      0.93836793	     -0.66596505	      4.31900062	      1.68120108	    -15.04019688	    -14.38497822	     12.97359214	     -1.04558068	      8.42073131	     -2.89057376	     -4.75075533	    -19.46457221	     13.50767502	     -1.66476530	     -6.27617318	     -0.65167183	     -5.09650802
      0.14000000	     -3.32458979	     -1.68138159	      3.44015505	     -1.00804331	      0.93836246	     -0.66598623	      4.34394867	      1.64427239	    -14.96047031	    -14.42644867	     12.99727165	     -1.04718775	      8.31028782	     -2.85467637	     -4.83369259	    -19.29665296	     13.51390441	     -1.70622002	     -6.26480085	     -0.65499906	     -5.08495403
      0.15000000	     -3.34110841	     -1.65977218	      3.36359402	     -1.00787794	      0.93834126	     -0.66599889	      4.37074607	      1.61540184	    -14.89165129	    -14.45578232	     13.01772222	     -1.05216873	      8.21174748	     -2.82570314	     -4.91457870	    -19.13330309	     13.51967206	     -1.75157938	     -6.24863486	     -0.65347297	     -5.07944860
      0.16000000	     -3.36459451	     -1.64340950	      3.28872676	     -1.00774036	      0.93830232	     -0.66599738	      4.40037562	      1.59418033	    -14.83277876	    -14.47289988	     13.03583922	     -1.06086902	      8.12814372	     -2.80239165	     -4.99383775	    -18.97684071	     13.52154258	     -1.79889783	     -6.22588558	     -0.64943156	     -5.08003993
      0.17000000	     -3.39605702	     -1.65252061	      3.24874608	     -1.00763440	      0.93823460	     -0.66604058	      4.42977554	      1.59819784	    -14.82863834	    -14.47222452	     13.04404783	     -1.06416576	      8.08462863	     -2.80611997	     -5.05054233	    -18.86216149	     13.52737995	     -1.81013488	     -6.19190484	     -0.61081641	     -5.13566561
      0.18000000	     -3.44448821	     -1.63370564	      3.17111500	     -1.00752392	      0.93815673	     -0.66602025	      4.46935041	      1.57820309	    -14.76346660	    -14.45424724	     13.05269883	     -1.08000803	      8.02714960	     -2.77786609	     -5.11812103	    -18.69771776	     13.52646650	     -1.85304098	     -6.13676118	     -0.61932311	     -5.11051870
      0.19000000	     -3.48237760	     -1.64254572	      3.13722898	     -1.00742137	      0.93807934	     -0.66607756	      4.48927703	      1.58431759	    -14.76735571	    -14.42464665	     13.06220829	     -1.08453390	      7.99589469	     -2.78094870	     -5.17767485	    -18.58970638	     13.52952211	     -1.86328946	     -6.08939910	     -0.58436213	     -5.16717329
      0.20000000	     -3.52958618	     -1.64675257	      3.10841315	     -1.00729343	      0.93799906	     -0.66615323	      4.50057166	      1.58907568	    -14.75993178	    -14.36442210	     13.06791315	     -1.09019801	      7.96807754	     -2.77547826	     -5.22849604	    -18.46983525	     13.53390187	     -1.87396192	     -6.02479263	     -0.55953420	     -5.20835771
      0.21000000	     -3.58134015	     -1.64140579	      3.07602091	     -1.00713531	      0.93793507	     -0.66623339	      4.49371774	      1.59283721	    -14.68468812	    -14.26262320	     13.05369636	     -1.10908063	      7.93152656	     -2.75534842	     -5.25292119	    -18.33047192	     13.52206346	     -1.90258283	     -5.95016153	     -0.55021993	     -5.22796311
      0.22000000	     -3.62291395	     -1.64467609	      3.06652661	     -1.00692388	      0.93788126	     -0.66639263	      4.47423117	      1.59615350	    -14.67991826	    -14.17186321	     13.05787081	     -1.11329569	      7.89807042	     -2.74607624	     -5.30512792	    -18.21777120	     13.52623098	     -1.91012991	     -5.87502703	     -0.52199861	     -5.28257037
      0.23000000	     -3.63936732	     -1.63887056	      3.05724227	     -1.00664547	      0.93790593	     -0.66656346	      4.37651947	      1.60916559	    -14.58352673	    -13.98906516	     13.01859355	     -1.12809039	      7.81209497	     -2.71792704	     -5.29389134	    -18.06582301	     13.49654603	     -1.93299173	     -5.82334839	     -0.50567693	     -5.31805220
      0.24000000	     -3.57428697	     -1.62684098	      3.03793657	     -1.00623908	      0.93807459	     -0.66676025	      4.17155350	      1.61392867	    -14.55023993	    -13.78674101	     12.96925159	     -1.13712495	      7.60356720	     -2.69055699	     -5.34510362	    -17.86604978	     13.46179179	     -1.95380810	     -5.85626680	     -0.48815952	     -5.33710382
      0.25000000	     -3.57220320	     -1.59944740	      3.01575584	     -1.00583814	      0.93815118	     -0.66696143	      4.02527620	      1.60098836	    -14.48687556	    -13.56760404	     12.94904665	     -1.12414122	      7.48115143	     -2.63939555	     -5.36350810	    -17.70329894	     13.42706297	     -1.95458636	     -5.81140177	     -0.49639210	     -5.36152610
      0.26000000	     -3.48897306	     -1.55238878	      2.95586399	     -1.00528462	      0.93838607	     -0.66713451	      3.76387992	      1.57237227	    -14.43430446	    -13.31157079	     12.89145766	     -1.09878529	      7.21661975	     -2.57305762	     -5.44092217	    -17.46780341	     13.36039775	     -1.95597240	     -5.84704061	     -0.52405281	     -5.32802782
